<svg xmlns="http://www.w3.org/2000/svg" width="696" height="168" viewBox="0 0 696 168" version="1.1"><path d="M 118.500 4.054 C 109.700 4.528, 101.012 5.184, 99.193 5.513 C 97.023 5.906, 93.473 8.327, 88.864 12.556 C 85.002 16.100, 81.243 19, 80.510 19 C 79.777 19, 77.406 16.413, 75.241 13.250 L 71.305 7.500 51.528 7.544 L 31.751 7.588 29.470 10.240 C 27.992 11.958, 26.472 16.168, 25.154 22.196 C 16.600 61.306, 14.015 72.489, 8.355 94.872 C 4.827 108.826, 1.504 121.059, 0.970 122.056 C 0.437 123.053, 0.016 128.286, 0.035 133.684 L 0.070 143.500 10.090 151 C 15.601 155.125, 22.222 159.984, 24.805 161.799 C 27.387 163.613, 30.339 165.790, 31.365 166.637 C 33.485 168.388, 34.965 168.304, 57 165.184 C 83.455 161.439, 110.337 158.054, 137.576 155.037 C 201.045 148.009, 217.422 146.849, 279.500 144.987 C 298.750 144.410, 316.193 143.686, 318.263 143.379 C 322.514 142.747, 323.486 141.403, 324.298 135.035 C 325.138 128.447, 326.264 128, 342.017 128 C 354.976 128, 355.759 128.115, 357.826 130.314 C 359.172 131.748, 360.008 133.937, 360.022 136.064 C 360.034 137.954, 360.857 140.556, 361.850 141.847 C 364.340 145.084, 372.462 145.898, 403 145.969 C 441.757 146.060, 493.294 148.773, 526.500 152.472 C 533.650 153.268, 544.675 154.417, 551 155.026 C 571.987 157.045, 615.306 162.068, 628.792 164.046 C 644.646 166.372, 658.298 166.709, 662.502 164.877 C 666.258 163.241, 689.643 146.099, 692.970 142.543 C 695.215 140.143, 695.504 140.067, 696.150 141.701 C 696.540 142.691, 696.891 138.662, 696.930 132.750 C 696.969 126.767, 696.589 122, 696.073 122 C 695.564 122, 694.995 122.786, 694.810 123.746 C 694.324 126.272, 681.162 76.629, 680.428 69.500 C 680.088 66.200, 677.818 54.275, 675.382 43 C 669.907 17.652, 666.695 10.166, 660.491 8.298 C 649.106 4.870, 546.220 1.939, 505 3.868 L 491.500 4.500 491.240 8 C 490.368 19.749, 488.934 20.532, 483 12.500 C 480.765 9.475, 478.402 7, 477.747 7 C 477.093 7, 473.994 9.537, 470.860 12.638 C 464.417 19.015, 462.446 19.154, 461.488 13.303 C 461.145 11.211, 460.635 8.263, 460.353 6.750 L 459.841 4 325.896 4 L 191.950 4 190.974 6.569 C 189.720 9.867, 185.662 9.643, 185.180 6.250 C 185.005 5.012, 184.780 3.967, 184.680 3.926 C 183.187 3.318, 130.303 3.420, 118.500 4.054 M 305.750 7.748 L 292 8.056 291.981 30.278 C 291.970 42.500, 291.683 62.976, 291.342 75.779 L 290.723 99.058 304.611 98.779 L 318.500 98.500 318.166 83.250 L 317.832 68 332.775 68 L 347.718 68 352.359 63.915 L 357 59.830 356.888 45.165 C 356.827 37.099, 356.489 26.296, 356.138 21.158 L 355.500 11.816 350 9.448 C 344.089 6.903, 343.809 6.893, 305.750 7.748 M 245.905 8.733 L 229.311 9.047 228.673 24.773 C 228.322 33.423, 227.732 54.254, 227.362 71.065 L 226.688 101.630 241.594 101.219 C 249.792 100.993, 263.025 100.514, 271 100.154 L 285.500 99.500 285.797 91.503 C 286.295 78.065, 287.514 79, 269.481 79 L 254 79 254 72.500 L 254 66 262.918 66 C 267.823 66, 272.436 65.771, 273.168 65.491 C 274.189 65.102, 274.427 62.538, 274.186 54.527 L 273.873 44.071 264.186 43.785 L 254.500 43.500 254.207 36.880 L 253.915 30.260 269.991 29.531 L 286.068 28.803 285.784 18.651 L 285.500 8.500 274 8.459 C 267.675 8.437, 255.032 8.560, 245.905 8.733 M 366.129 10.081 L 361.759 12.020 362.369 27.260 C 362.705 35.642, 363.269 53.490, 363.622 66.922 C 363.976 80.354, 364.573 92.504, 364.949 93.922 C 366.051 98.075, 371.945 98.925, 404.751 99.664 L 434.002 100.322 433.432 92.411 C 431.334 63.295, 425.657 10.871, 424.377 8.800 C 424.105 8.360, 411.871 8.032, 397.191 8.071 C 373.038 8.135, 370.084 8.326, 366.129 10.081 M 430.441 12.216 C 433.084 28.163, 437.785 52.584, 441.430 69.304 C 443.851 80.412, 446.343 92.046, 446.968 95.157 L 448.103 100.815 458.302 101.510 C 474.618 102.622, 472.651 104.714, 477.347 81.250 C 479.576 70.113, 481.688 61, 482.040 61 C 482.393 61, 484.614 65.613, 486.976 71.250 C 495.215 90.910, 500.242 101.956, 501.367 102.869 C 501.990 103.374, 507.225 103.948, 513 104.144 L 523.500 104.500 523.383 58.217 C 523.319 32.761, 522.945 11.611, 522.552 11.217 C 522.160 10.823, 517.150 10.347, 511.419 10.159 L 501 9.818 500.955 28.159 L 500.910 46.500 492.317 37.500 C 487.592 32.550, 482.602 26.813, 481.230 24.750 C 479.857 22.688, 478.457 21.014, 478.117 21.031 C 477.778 21.048, 474.442 25.488, 470.705 30.898 C 466.968 36.309, 462.828 41.752, 461.506 42.994 L 459.102 45.253 458.391 42.423 C 458 40.866, 456.279 32.821, 454.567 24.546 L 451.453 9.500 440.675 9.216 L 429.896 8.931 430.441 12.216 M 199.627 10.795 C 199.357 11.232, 198.993 17.982, 198.818 25.794 C 198.619 34.676, 198.125 39.876, 197.500 39.672 C 196.339 39.293, 185.818 26.149, 179.904 17.688 C 177.670 14.492, 175.158 11.614, 174.321 11.293 C 173.485 10.972, 169.816 11.113, 166.166 11.605 L 159.531 12.500 157.361 39.500 C 156.167 54.350, 154.472 73.897, 153.595 82.937 C 152.718 91.978, 152 100.884, 152 102.729 L 152 106.083 159.750 105.506 C 164.012 105.189, 170.247 104.691, 173.604 104.400 L 179.707 103.872 180.373 91.686 C 181.662 68.127, 182.303 61, 183.136 61 C 183.598 61, 186.681 64.404, 189.988 68.566 L 196 76.131 196 89.638 L 196 103.144 207.750 102.497 C 214.213 102.140, 220.010 101.692, 220.632 101.501 C 221.431 101.255, 221.947 90.902, 222.384 66.327 C 222.724 47.172, 223.251 26.663, 223.555 20.750 L 224.107 10 212.113 10 C 205.516 10, 199.897 10.358, 199.627 10.795 M 529.005 14.629 C 529.007 16.758, 530.578 33.125, 532.495 51 C 534.412 68.875, 536.499 88.541, 537.132 94.702 C 538.490 107.919, 535.886 106.402, 560 108.021 C 596.957 110.501, 599.222 110.584, 599.651 109.468 C 600.226 107.970, 597.230 89.830, 596.244 88.844 C 595.808 88.408, 589.010 87.743, 581.138 87.367 C 565.689 86.629, 564.009 86.023, 563.989 81.179 C 563.983 79.705, 563.699 76.813, 563.358 74.750 L 562.738 71 573.306 71 L 583.874 71 583.297 67.250 C 582.980 65.188, 582.208 60.350, 581.582 56.500 L 580.444 49.500 570.630 48.858 C 565.233 48.505, 560.458 47.830, 560.020 47.358 C 559.582 46.886, 558.909 43.432, 558.525 39.681 L 557.826 32.862 573.413 33.575 C 587.960 34.241, 589 34.169, 589 32.507 C 589 31.528, 588.476 26.788, 587.835 21.975 L 586.670 13.224 573.585 12.626 C 566.388 12.297, 553.413 11.742, 544.750 11.393 L 529 10.758 529.005 14.629 M 139.500 12.927 L 129.500 13.500 126.803 34.500 C 125.320 46.050, 122.593 67.313, 120.744 81.750 L 117.382 108 120.441 107.999 C 124.302 107.998, 145.311 106.022, 145.711 105.623 C 145.874 105.459, 146.687 97.264, 147.518 87.413 C 148.348 77.561, 149.678 62.300, 150.473 53.500 C 151.269 44.700, 152.222 32.325, 152.592 26 C 152.961 19.675, 153.317 14.050, 153.382 13.500 C 153.528 12.266, 152.077 12.207, 139.500 12.927 M 107.421 14.912 C 100.701 15.470, 100.069 15.745, 94.987 20.318 C 89.655 25.115, 79.646 37.517, 77.734 41.695 C 76.478 44.439, 74.104 45.434, 73.371 43.524 C 73.067 42.731, 73.361 40.435, 74.026 38.422 C 75.151 35.013, 75.062 34.615, 72.722 32.631 C 71.340 31.459, 69.937 29.294, 69.603 27.820 C 69.270 26.346, 68.324 24.467, 67.502 23.645 C 66.680 22.823, 65.567 20.992, 65.029 19.575 C 64.103 17.140, 63.681 17.006, 57.275 17.117 C 53.549 17.181, 47.619 17.519, 44.098 17.867 L 37.696 18.500 31.481 46.500 C 26.523 68.835, 17.612 104.951, 13.406 119.750 C 12.889 121.569, 13.167 122, 14.853 122 C 17.055 122, 36.946 119.278, 40.705 118.463 C 43.399 117.878, 43.866 116.324, 48.507 92.500 C 52.955 69.672, 55.014 61, 55.985 61 C 57.851 61, 63.287 70.519, 65.364 77.424 C 66.013 79.582, 67.065 81.522, 67.703 81.734 C 68.340 81.947, 70.523 79.506, 72.553 76.310 C 79.045 66.094, 87.967 56.634, 89.586 58.252 C 89.814 58.480, 89.544 61.104, 88.987 64.083 C 87.298 73.111, 81.065 112.400, 81.290 112.602 C 81.714 112.983, 110.993 109.340, 111.488 108.845 C 112.047 108.287, 112.986 101.177, 119.067 51.500 C 121.289 33.350, 123.356 17.488, 123.662 16.250 C 124.184 14.134, 123.927 14.010, 119.358 14.162 C 116.686 14.251, 111.314 14.588, 107.421 14.912 M 593.286 17.750 C 593.588 19.813, 595.447 31.512, 597.417 43.750 C 599.388 55.988, 602.590 76.005, 604.534 88.234 C 606.477 100.462, 608.498 110.898, 609.025 111.425 C 610.041 112.441, 636.715 114.618, 637.578 113.755 C 637.994 113.339, 634.336 90.876, 632.440 82.201 C 631.953 79.974, 632.128 79.912, 638.112 80.201 L 644.287 80.500 648.393 99 L 652.500 117.500 663.500 119.185 C 678.486 121.481, 682.408 121.506, 681.563 119.303 C 681.205 118.370, 679.059 110.204, 676.795 101.155 C 672.900 85.594, 672.443 84.439, 668.339 79.818 C 663.353 74.204, 662.872 71.471, 666.575 69.784 C 669.486 68.458, 669.503 68.939, 665.925 52 C 659.892 23.438, 658.549 19.160, 655.211 17.885 C 653.103 17.081, 607.304 14.137, 595.118 14.022 C 592.933 14.002, 592.782 14.309, 593.286 17.750 M 318 37 L 318 47 325 47 L 332 47 332 37 L 332 27 325 27 L 318 27 318 37 M 388.532 27.949 C 387.842 29.065, 389.644 71.232, 390.575 75.750 C 391.005 77.842, 391.565 78, 398.525 78 L 406.012 78 405.439 69.250 C 405.124 64.438, 404.448 55.550, 403.937 49.500 C 403.425 43.450, 403.005 36.138, 403.003 33.250 L 403 28 399.125 28 C 396.994 28, 393.898 27.730, 392.246 27.399 C 390.441 27.038, 388.959 27.257, 388.532 27.949 M 624.493 39.619 C 625.763 49.086, 627.016 55.415, 627.754 56.086 C 628.894 57.124, 638.992 57.822, 639.560 56.903 C 640.110 56.012, 636.453 37.119, 635.556 36.223 C 635.249 35.916, 632.487 35.456, 629.418 35.202 L 623.838 34.739 624.493 39.619 M 0.374 133.500 C 0.376 139.550, 0.541 141.896, 0.740 138.713 C 0.939 135.531, 0.937 130.581, 0.736 127.713 C 0.535 124.846, 0.372 127.450, 0.374 133.500" stroke="none" fill="#131420" fill-rule="evenodd"/><path d="M 305.750 7.748 L 292 8.056 291.981 30.278 C 291.970 42.500, 291.683 62.976, 291.342 75.779 L 290.723 99.058 304.611 98.779 L 318.500 98.500 318.166 83.250 L 317.832 68 332.775 68 L 347.718 68 352.359 63.915 L 357 59.830 356.888 45.165 C 356.827 37.099, 356.489 26.296, 356.138 21.158 L 355.500 11.816 350 9.448 C 344.089 6.903, 343.809 6.893, 305.750 7.748 M 245.905 8.733 L 229.311 9.047 228.673 24.773 C 228.322 33.423, 227.732 54.254, 227.362 71.065 L 226.688 101.630 241.594 101.219 C 249.792 100.993, 263.025 100.514, 271 100.154 L 285.500 99.500 285.797 91.503 C 286.295 78.065, 287.514 79, 269.481 79 L 254 79 254 72.500 L 254 66 262.918 66 C 267.823 66, 272.436 65.771, 273.168 65.491 C 274.189 65.102, 274.427 62.538, 274.186 54.527 L 273.873 44.071 264.186 43.785 L 254.500 43.500 254.207 36.880 L 253.915 30.260 269.991 29.531 L 286.068 28.803 285.784 18.651 L 285.500 8.500 274 8.459 C 267.675 8.437, 255.032 8.560, 245.905 8.733 M 366.129 10.081 L 361.759 12.020 362.369 27.260 C 362.705 35.642, 363.269 53.490, 363.622 66.922 C 363.976 80.354, 364.573 92.504, 364.949 93.922 C 366.051 98.075, 371.945 98.925, 404.751 99.664 L 434.002 100.322 433.432 92.411 C 431.334 63.295, 425.657 10.871, 424.377 8.800 C 424.105 8.360, 411.871 8.032, 397.191 8.071 C 373.038 8.135, 370.084 8.326, 366.129 10.081 M 430.441 12.216 C 433.084 28.163, 437.785 52.584, 441.430 69.304 C 443.851 80.412, 446.343 92.046, 446.968 95.157 L 448.103 100.815 458.302 101.510 C 474.618 102.622, 472.651 104.714, 477.347 81.250 C 479.576 70.113, 481.688 61, 482.040 61 C 482.393 61, 484.614 65.613, 486.976 71.250 C 495.215 90.910, 500.242 101.956, 501.367 102.869 C 501.990 103.374, 507.225 103.948, 513 104.144 L 523.500 104.500 523.383 58.217 C 523.319 32.761, 522.945 11.611, 522.552 11.217 C 522.160 10.823, 517.150 10.347, 511.419 10.159 L 501 9.818 500.955 28.159 L 500.910 46.500 492.317 37.500 C 487.592 32.550, 482.602 26.813, 481.230 24.750 C 479.857 22.688, 478.457 21.014, 478.117 21.031 C 477.778 21.048, 474.442 25.488, 470.705 30.898 C 466.968 36.309, 462.828 41.752, 461.506 42.994 L 459.102 45.253 458.391 42.423 C 458 40.866, 456.279 32.821, 454.567 24.546 L 451.453 9.500 440.675 9.216 L 429.896 8.931 430.441 12.216 M 199.627 10.795 C 199.357 11.232, 198.993 17.982, 198.818 25.794 C 198.619 34.676, 198.125 39.876, 197.500 39.672 C 196.339 39.293, 185.818 26.149, 179.904 17.688 C 177.670 14.492, 175.158 11.614, 174.321 11.293 C 173.485 10.972, 169.816 11.113, 166.166 11.605 L 159.531 12.500 157.361 39.500 C 156.167 54.350, 154.472 73.897, 153.595 82.937 C 152.718 91.978, 152 100.884, 152 102.729 L 152 106.083 159.750 105.506 C 164.012 105.189, 170.247 104.691, 173.604 104.400 L 179.707 103.872 180.373 91.686 C 181.662 68.127, 182.303 61, 183.136 61 C 183.598 61, 186.681 64.404, 189.988 68.566 L 196 76.131 196 89.638 L 196 103.144 207.750 102.497 C 214.213 102.140, 220.010 101.692, 220.632 101.501 C 221.431 101.255, 221.947 90.902, 222.384 66.327 C 222.724 47.172, 223.251 26.663, 223.555 20.750 L 224.107 10 212.113 10 C 205.516 10, 199.897 10.358, 199.627 10.795 M 529.005 14.629 C 529.007 16.758, 530.578 33.125, 532.495 51 C 534.412 68.875, 536.499 88.541, 537.132 94.702 C 538.490 107.919, 535.886 106.402, 560 108.021 C 596.957 110.501, 599.222 110.584, 599.651 109.468 C 600.226 107.970, 597.230 89.830, 596.244 88.844 C 595.808 88.408, 589.010 87.743, 581.138 87.367 C 565.689 86.629, 564.009 86.023, 563.989 81.179 C 563.983 79.705, 563.699 76.813, 563.358 74.750 L 562.738 71 573.306 71 L 583.874 71 583.297 67.250 C 582.980 65.188, 582.208 60.350, 581.582 56.500 L 580.444 49.500 570.630 48.858 C 565.233 48.505, 560.458 47.830, 560.020 47.358 C 559.582 46.886, 558.909 43.432, 558.525 39.681 L 557.826 32.862 573.413 33.575 C 587.960 34.241, 589 34.169, 589 32.507 C 589 31.528, 588.476 26.788, 587.835 21.975 L 586.670 13.224 573.585 12.626 C 566.388 12.297, 553.413 11.742, 544.750 11.393 L 529 10.758 529.005 14.629 M 139.500 12.927 L 129.500 13.500 126.803 34.500 C 125.320 46.050, 122.593 67.313, 120.744 81.750 L 117.382 108 120.441 107.999 C 124.302 107.998, 145.311 106.022, 145.711 105.623 C 145.874 105.459, 146.687 97.264, 147.518 87.413 C 148.348 77.561, 149.678 62.300, 150.473 53.500 C 151.269 44.700, 152.222 32.325, 152.592 26 C 152.961 19.675, 153.317 14.050, 153.382 13.500 C 153.528 12.266, 152.077 12.207, 139.500 12.927 M 107.421 14.912 C 100.701 15.470, 100.069 15.745, 94.987 20.318 C 89.655 25.115, 79.646 37.517, 77.734 41.695 C 76.478 44.439, 74.104 45.434, 73.371 43.524 C 73.067 42.731, 73.361 40.435, 74.026 38.422 C 75.151 35.013, 75.062 34.615, 72.722 32.631 C 71.340 31.459, 69.937 29.294, 69.603 27.820 C 69.270 26.346, 68.324 24.467, 67.502 23.645 C 66.680 22.823, 65.567 20.992, 65.029 19.575 C 64.103 17.140, 63.681 17.006, 57.275 17.117 C 53.549 17.181, 47.619 17.519, 44.098 17.867 L 37.696 18.500 31.481 46.500 C 26.523 68.835, 17.612 104.951, 13.406 119.750 C 12.889 121.569, 13.167 122, 14.853 122 C 17.055 122, 36.946 119.278, 40.705 118.463 C 43.399 117.878, 43.866 116.324, 48.507 92.500 C 52.955 69.672, 55.014 61, 55.985 61 C 57.851 61, 63.287 70.519, 65.364 77.424 C 66.013 79.582, 67.065 81.522, 67.703 81.734 C 68.340 81.947, 70.523 79.506, 72.553 76.310 C 79.045 66.094, 87.967 56.634, 89.586 58.252 C 89.814 58.480, 89.544 61.104, 88.987 64.083 C 87.298 73.111, 81.065 112.400, 81.290 112.602 C 81.714 112.983, 110.993 109.340, 111.488 108.845 C 112.047 108.287, 112.986 101.177, 119.067 51.500 C 121.289 33.350, 123.356 17.488, 123.662 16.250 C 124.184 14.134, 123.927 14.010, 119.358 14.162 C 116.686 14.251, 111.314 14.588, 107.421 14.912 M 593.286 17.750 C 593.588 19.813, 595.447 31.512, 597.417 43.750 C 599.388 55.988, 602.590 76.005, 604.534 88.234 C 606.477 100.462, 608.498 110.898, 609.025 111.425 C 610.041 112.441, 636.715 114.618, 637.578 113.755 C 637.994 113.339, 634.336 90.876, 632.440 82.201 C 631.953 79.974, 632.128 79.912, 638.112 80.201 L 644.287 80.500 648.393 99 L 652.500 117.500 663.500 119.185 C 678.486 121.481, 682.408 121.506, 681.563 119.303 C 681.205 118.370, 679.059 110.204, 676.795 101.155 C 672.900 85.594, 672.443 84.439, 668.339 79.818 C 663.353 74.204, 662.872 71.471, 666.575 69.784 C 669.486 68.458, 669.503 68.939, 665.925 52 C 659.892 23.438, 658.549 19.160, 655.211 17.885 C 653.103 17.081, 607.304 14.137, 595.118 14.022 C 592.933 14.002, 592.782 14.309, 593.286 17.750 M 318 37 L 318 47 325 47 L 332 47 332 37 L 332 27 325 27 L 318 27 318 37 M 388.532 27.949 C 387.842 29.065, 389.644 71.232, 390.575 75.750 C 391.005 77.842, 391.565 78, 398.525 78 L 406.012 78 405.439 69.250 C 405.124 64.438, 404.448 55.550, 403.937 49.500 C 403.425 43.450, 403.005 36.138, 403.003 33.250 L 403 28 399.125 28 C 396.994 28, 393.898 27.730, 392.246 27.399 C 390.441 27.038, 388.959 27.257, 388.532 27.949 M 624.493 39.619 C 625.763 49.086, 627.016 55.415, 627.754 56.086 C 628.894 57.124, 638.992 57.822, 639.560 56.903 C 640.110 56.012, 636.453 37.119, 635.556 36.223 C 635.249 35.916, 632.487 35.456, 629.418 35.202 L 623.838 34.739 624.493 39.619" stroke="none" fill="#f1f3f7" fill-rule="evenodd"/></svg>